<svg width="44" height="28" viewBox="0 0 44 28" fill="none" xmlns="http://www.w3.org/2000/svg">
<path fill-rule="evenodd" clip-rule="evenodd" d="M0 0H2.10437V18.5937H0V0ZM14.0551 16.7052C13.6271 17.6131 12.3788 18.9205 9.98906 18.9205C7.38535 18.9205 5.31665 17.3589 5.31665 14.6352C5.31665 11.4395 8.08978 10.8675 10.6311 10.5316C11.0501 10.4767 11.428 10.4336 11.7667 10.395C13.4458 10.2035 14.1621 10.1218 14.1621 9.26052V9.18788C14.1621 7.39933 13.208 6.35526 11.2731 6.35526C9.2668 6.35526 8.17003 7.44473 7.70635 8.46157L5.70899 7.73525C6.77901 5.19315 9.13304 4.46684 11.2017 4.46684C12.9494 4.46684 16.2665 4.97526 16.2665 9.40578V18.5937H14.1621V16.7052H14.0551ZM7.42102 14.7442C7.42102 16.2331 8.6337 16.9958 10.3101 16.9958C12.8068 16.9958 14.1621 15.2889 14.1621 13.5458V11.5847C13.8316 11.9885 11.7557 12.2364 10.7433 12.3573L10.7433 12.3573L10.7432 12.3573C10.663 12.3669 10.5895 12.3757 10.5241 12.3837C8.88337 12.6016 7.42102 13.11 7.42102 14.7442ZM19.7151 18.5937H30.4509V16.5963H22.6398V16.451L30.2012 6.35526V4.64842H19.9647V6.64578H27.4905V6.79104L19.7151 16.9595V18.5937ZM41.7886 16.7052C41.3606 17.6131 40.1123 18.9205 37.7226 18.9205C35.1189 18.9205 33.0502 17.3589 33.0502 14.6352C33.0502 11.4395 35.8233 10.8675 38.3646 10.5316C38.7836 10.4767 39.1615 10.4336 39.5002 10.395C41.1794 10.2035 41.8956 10.1218 41.8956 9.26052V9.18788C41.8956 7.39933 40.9415 6.35526 39.0066 6.35526C37.0003 6.35526 35.9035 7.44473 35.4399 8.46157L33.4425 7.73525C34.5125 5.19315 36.8666 4.46684 38.9353 4.46684C40.6829 4.46684 44 4.97526 44 9.40578V18.5937H41.8956V16.7052H41.7886ZM35.1545 14.7442C35.1545 16.2331 36.3672 16.9958 38.0436 16.9958C40.5403 16.9958 41.8956 15.2889 41.8956 13.5458V11.5847C41.5652 11.9885 39.4892 12.2364 38.4768 12.3573L38.4768 12.3573L38.4766 12.3573L38.4742 12.3576C38.395 12.3671 38.3223 12.3758 38.2576 12.3837C36.6169 12.6016 35.1545 13.11 35.1545 14.7442ZM14.2096 22.5175C18.6961 26.6826 30.8444 32.3933 43.8748 22.6007L42.3729 20.6022C30.589 29.4579 19.7938 24.2904 15.9105 20.6853L14.2096 22.5175Z" fill="#9775FA"/>
</svg>
